<?xml version="1.0" encoding="UTF-8"?>
<!DOCTYPE svg PUBLIC "-//W3C//DTD SVG 1.1//EN" "http://www.w3.org/Graphics/SVG/1.1/DTD/svg11.dtd">
<!-- Creator: CorelDRAW -->
<svg xmlns="http://www.w3.org/2000/svg" xml:space="preserve" width="362.407mm" height="78.7419mm" version="1.1" style="shape-rendering:geometricPrecision; text-rendering:geometricPrecision; image-rendering:optimizeQuality; fill-rule:evenodd; clip-rule:evenodd"
viewBox="0 0 256129.82 55650.56"
 xmlns:xlink="http://www.w3.org/1999/xlink"
 xmlns:xodm="http://www.corel.com/coreldraw/odm/2003">
 <defs>
  <style type="text/css">
   <![CDATA[
    .fil0 {fill:#E18433;fill-rule:nonzero}
   ]]>
  </style>
 </defs>
 <g id="Capa_x0020_1">
  <metadata id="CorelCorpID_0Corel-Layer"/>
  <path class="fil0" d="M2524.07 55282l-2524.07 317.61 0 -55599.61 9404.04 0 0 44926.32c1616.89,-174.21 3263.12,-350.33 5007.23,-532.11 1995.22,-207.92 4029.66,-412.81 6132.65,-610.98l1090.79 -102.76 0 9268.06 -884.28 102.55c-6372.95,739.12 -12299.79,1485.09 -18226.36,2230.92zm40268.3 -46312.68l-5222.22 67.78 0 11745.92 4068.03 -156.76 6132.72 -240.58 0 8891.37 -946.62 50.6c-1700.08,90.82 -3400.3,180.57 -5100.38,269.41l-4153.76 216.19 0 12446.8c1715.63,-137.18 3488.85,-277.54 5339.05,-421.86 2140.95,-167.07 4285.29,-331.61 6429.41,-491.97l1071.29 -80.15 0 8864.09 -911.56 81.28c-3338.6,297.75 -6710.56,604.55 -10142.94,926.47 -3305.45,309.98 -6670.06,635.58 -10119.97,982.66l-1094.68 110.18 0 -52230.76 22269.16 0.07 0 8871.51 -985.63 12.23c-2211.76,27.49 -4423.67,56.61 -6631.9,85.52zm30861.71 39584.17c-2479.69,143.89 -4959.66,288.07 -7414.12,431.96l-1051.85 61.7 0 -16492.92c-414.01,-1363.38 -830.22,-2727.97 -1246.49,-4093.55 -1177.02,-3860.6 -2357.35,-7731.6 -3430.41,-11359.32l-1105.35 -3733.18c-1151.08,-3885.62 -2307.46,-7789.05 -3563.63,-12094.27l-371.75 -1273.91 9856.85 0 1604.39 6104.45c469.28,1784.04 938.91,3564.97 1408.55,5340.18 469,1772.73 938.56,3544.26 1408.05,5313.53l498.75 1878.67c197.75,-754.88 388.78,-1479.79 579.6,-2203.99 489.28,-1857.33 978.56,-3714.02 1323.88,-5055.29 711.41,-2763.38 1328.97,-5070.62 1945.67,-7375.04 361.08,-1349.25 719.82,-2689.59 870.92,-3258.45l197.61 -744.06 9213.29 0 -393.09 1285.57c-718.05,2348.17 -1025.63,3349.13 -1336.53,4361.4 -1108.25,3608.15 -2218.69,7223.09 -3379.31,11110.69 -629.64,2109.07 -1266.63,4222.25 -1904.54,6338.88 -946.62,3140.99 -1895.92,6290.54 -2747.05,9170.04l0 16231.07 -963.44 55.83zm15622.49 -48553.49l8342.29 0 396.63 2613.34c849.51,5598.92 1699.02,11196.42 2548.95,16776.04l1886.02 12372.94 503.7 -3317.47c473.45,-3114.91 947.04,-6230.04 1373.7,-9110.32 634.45,-4282.67 1269.18,-8408.45 1903.41,-12531.89 305.31,-1985.18 610.77,-3969.94 913.26,-5953.42l129.48 -849.23 8850.37 0 -965.77 5965.86c-958.63,5921.33 -1917.69,11844.79 -2874.9,17764.85 -609.5,3769.86 -1218.64,7542.75 -1827.43,11318.12l-1957.97 12150.39 -826.89 21.49c-1747.85,45.37 -3495.85,89.69 -5241.02,133.79 -1953.8,49.33 -3904.42,98.87 -5847.83,149.62l-866.47 22.69 -138.66 -860.25c-308.64,-1914.86 -743.14,-4591.31 -1183.8,-7305.5 -811.35,-4998.39 -1623.26,-9999.9 -2470.15,-15382.9 -511.97,-3254.43 -1088.32,-6855.44 -1665.24,-10460.2 -645.68,-4034.6 -1292.29,-8074.44 -1963.41,-12368.7l-179.65 -1149.24 1161.4 0zm38290.75 0l11703.65 0 138.52 837.57c582.5,3522.85 1227.97,7349.46 1872.95,11173.87 624.55,3703.21 1249.39,7407.34 1907.93,11393.04 769.58,4656.89 1601.28,9574.86 2433.89,14498.27 458.25,2710.16 917,5421.95 1372.36,8134.23l199.37 1187.83 -1204.51 -30.81c-1266.21,-32.3 -2516.09,-55.13 -3753.25,-72.23 -1258.15,-17.46 -2504.36,-29.47 -3742.08,-40.07l-842.09 -7.21 -1293.98 -8185.75 -7412.07 -47.21 -1291.72 8146.67 -842.44 7.92c-1127.33,10.53 -2254.8,19.93 -3379.03,29.05 -1153.2,9.4 -2303.36,19.01 -3446.8,29.75l-1182.25 11.24 192.73 -1164.36c659.96,-3988.45 1284.79,-7688.91 1909.21,-11387.45 644.84,-3819.54 1289.88,-7639.44 1871.61,-11152.67 852.97,-5151.19 1692.38,-10085.06 2531.64,-15018.72 425.74,-2503.01 851.7,-5006.24 1274.62,-7509.25l140.85 -833.68 840.89 0zm5890.94 20530.42l-840.6 -5473.82c-243.33,1569.75 -492.53,3187.99 -741.59,4805.38l-1676.54 10890.82 4833.37 26.29 -1574.63 -10248.67zm34684.01 -11976.03l-5017.05 -28.91 0 11785.28 9591.75 176.47 0 8570.15 -1016.8 -23.89c-1705.1,-39.93 -3256.9,-77.6 -4799.73,-114.99l-3775.23 -90.96 0 18865.75 -1040.12 -44.81c-1266.49,-54.49 -2503.44,-99.86 -3715.23,-138.38 -1256.95,-39.93 -2488.95,-73.36 -3700.17,-102.27l-973.9 -23.25 0 -47384.6 21660.16 0 0 8594.96 -1001.18 -5.3c-2071.83,-10.81 -4143.94,-23.18 -6212.51,-35.27zm24778.53 40733.83c-3313.86,-229.13 -6590.84,-442.28 -9811.62,-629l-942.73 -54.63 0 -48604.58 9429.41 0 0 40442.79 4076.37 258.95c2402.94,152.73 4811.32,306.02 7219.42,457.27l934.95 58.8 0 8863.87 -1071.29 -80.22c-3340.08,-250.05 -6638.75,-492.32 -9834.52,-713.25zm25728.97 2094.37c-2486.69,-224.53 -4973.59,-449.28 -7434.83,-673.81l-907.67 -82.76 0 -50626.02 9429.41 0 0 51480.83 -1086.91 -98.24zm27400.07 -49642.3l520.38 -1740.29 8956.67 0 -384.26 1281.68c-646.96,2157.7 -1293.42,4310.45 -1940.09,6454.93 -509.28,1688.91 -1130.09,3735.72 -1946.17,6409.98 -738.9,2421.31 -1378.37,4507.42 -1940.02,6331.74 -617.48,2005.68 -1235.53,4005.34 -1852.74,5997.88 426.45,1428.83 855.73,2860.27 1285.64,4294.33 896.23,2988.9 1796.34,5991.02 2764.72,9288.56 713.18,2428.52 1438.23,4866.52 2165.75,7313.06 673.81,2266.04 1350.1,4539.86 2021.15,6820.6l428.92 1457.81 -10001.1 -1248.19 -181.49 -638.9c-507.44,-1786.02 -1014.75,-3571.05 -1518.8,-5351.77 -504.12,-1780.72 -1005.42,-3557.62 -1500.85,-5327.38 -533.81,-1906.73 -1160.69,-4102.17 -1786.23,-6292.94l-361.5 -1266.91 -309.77 1005.21c-586.53,1902.63 -1171.36,3799.47 -1821.14,5966 -503.49,1678.81 -1092.14,3578.4 -1679.3,5473.33 -480.59,1551.17 -960.4,3099.58 -1344.23,4364.8l-239.45 789.01 -1010.86 -108.7c-2269.5,-244.39 -4538.66,-488.86 -6783.49,-733.11l-1223.87 -133.15 382.42 -1164.15c684.27,-2083.21 1023.58,-3110.6 1355.12,-4114.68 988.46,-2993.57 1981.22,-5999.78 2780.98,-8474.95 845.83,-2617.79 1566.57,-4817.47 2288.45,-7020.82 600.73,-1833.51 1202.95,-3671.41 1801.5,-5513.68 -615.93,-1997.97 -1231.65,-3992.62 -1847.36,-5981.48 -566.74,-1830.4 -1196.52,-3856.57 -1942.07,-6242.48 -645.82,-2067.16 -1292.99,-4130.09 -1940.3,-6187.42 -489.92,-1557.17 -1148.46,-3642.22 -1942.07,-6150.96l-410.41 -1297.23 9795.37 0 208.7 720.67c392.67,1356.53 790.57,2715.11 1188.75,4075.52 598.68,2044.97 1199.63,4097.43 1580.99,5425.83 743.64,2590.23 1339.43,4640.85 1905.95,6584.12l508.22 -1708.14c469.56,-1581.42 939.12,-3167.14 1407.77,-4755.56 925.98,-3138.31 1741.78,-5865.78 2560.12,-8602.17z"/>
 </g>
</svg>
